# xmcd
#
# Track frame offsets:
#	150
#	11613
#	23867
#	34368
#	44230
#	55823
#	70551
#	82400
#	99265
#	112283
#	126321
#	134283
#
# Disc length: 1943 seconds
#
# Revision: 1
# Processed by: cddbd v1.5.2PL0 Copyright (c) Steve Scherf et al.
# Submitted via: audiograbber 1.83.01
#
DISCID=af07950c
DTITLE=Cornelia Reyna - Coleccion de Oro (Con Mariachi) [CD 3)
DYEAR=2002
DGENRE=Latin
TTITLE0=Botella Envenenada
TTITLE1=Idos De La Mente
TTITLE2=Me Aventaron Tus Brazos
TTITLE3=Diez Y Ocho Mil Quinientas Veces
TTITLE4=Paloma Preciosa
TTITLE5=Chupas
TTITLE6=Lagrimas Perdidas
TTITLE7=Ya No Tengo A Mi Madre
TTITLE8=Ni Por Todo El Dinero Del Mundo
TTITLE9=Que Se Junten Nuestros Brazos
TTITLE10=Aunque Tenga Otros Amores
TTITLE11=Ando Sin Frenos
EXTD=
EXTT0=
EXTT1=
EXTT2=
EXTT3=
EXTT4=
EXTT5=
EXTT6=
EXTT7=
EXTT8=
EXTT9=
EXTT10=
EXTT11=
PLAYORDER=
